<svg width="24" height="24" viewBox="0 0 24 24" fill="none" xmlns="http://www.w3.org/2000/svg">
<path d="M12 1C13.5615 1 15.079 1.32617 16.4758 1.94902C16.9802 2.17395 17.2068 2.76519 16.9818 3.2696C16.7569 3.77401 16.1657 4.00057 15.6613 3.77565C14.5196 3.26655 13.2795 3 12 3C7.02944 3 3 7.02944 3 12C3 16.9706 7.02944 21 12 21C16.9706 21 21 16.9706 21 12C21 11.7321 20.9883 11.4657 20.9651 11.2014C20.9168 10.6512 21.3237 10.1661 21.8738 10.1178C22.424 10.0695 22.9091 10.4763 22.9575 11.0265C22.9858 11.349 23 11.6737 23 12C23 18.0751 18.0751 23 12 23C5.92487 23 1 18.0751 1 12C1 5.92487 5.92487 1 12 1ZM22.7068 3.29254C23.0674 3.65284 23.0954 4.22006 22.7906 4.6125L22.7075 4.70675L12.7075 14.7168C12.347 15.0775 11.7796 15.1054 11.3871 14.8003L11.2929 14.7171L8.29289 11.7171C7.90237 11.3266 7.90237 10.6934 8.29289 10.3029C8.65338 9.94241 9.22061 9.91468 9.6129 10.2197L9.70711 10.3029L12 12.595L21.2925 3.29325C21.6829 2.90253 22.316 2.90221 22.7068 3.29254Z" fill="#0180FF"/>
</svg>
