<svg width="20" height="20" viewBox="0 0 20 20" fill="none" xmlns="http://www.w3.org/2000/svg">
<path d="M17 7C18.6569 7 20 8.34315 20 10V17C20 18.6569 18.6569 20 17 20H10C8.34315 20 7 18.6569 7 17V10C7 8.34315 8.34315 7 10 7H17ZM17 9H10C9.44772 9 9 9.44772 9 10V17C9 17.5523 9.44772 18 10 18H17C17.5523 18 18 17.5523 18 17V10C18 9.44772 17.5523 9 17 9ZM10 0C11.5977 0 12.9037 1.24892 12.9949 2.82373L13 3V4C13 4.55228 12.5523 5 12 5C11.4872 5 11.0645 4.61396 11.0067 4.11662L11 4V3C11 2.48716 10.614 2.06449 10.1166 2.00673L10 2H3C2.48716 2 2.06449 2.38604 2.00673 2.88338L2 3V10C2 10.5128 2.38604 10.9355 2.88338 10.9933L3 11H4C4.55228 11 5 11.4477 5 12C5 12.5128 4.61396 12.9355 4.11662 12.9933L4 13H3C1.40232 13 0.0963391 11.7511 0.00509262 10.1763L0 10V3C0 1.40232 1.24892 0.0963391 2.82373 0.00509262L3 0H10Z" fill="#3E434F"/>
</svg>
